<?xml version="1.0" encoding="utf-8"?>
<!-- Generator: Adobe Illustrator 19.2.0, SVG Export Plug-In . SVG Version: 6.00 Build 0)  -->
<svg version="1.1" id="Layer_1" xmlns="http://www.w3.org/2000/svg" xmlns:xlink="http://www.w3.org/1999/xlink" x="0px" y="0px"
	 viewBox="0 0 70 100" style="enable-background:new 0 0 70 100;" xml:space="preserve">
<style type="text/css">
	.st0{fill:#352040;}
</style>
<title>miss mittens logo</title>
<path class="st0" d="M66.3,47.6c-6.8-3.2-18,1.3-23.9,9.9c-1,1.5-1.9,3-2.8,4.6
	L31.4,73c-3.3-9.4-10-28.5-8.2-41.2
	c0.3-1.1,1.3-1.9,2.5-1.8c14.8,1.4,16.2-11.8,16.1-21.4c0-1.2-0.8-1.5-1.6-0.7l-2.9,2.6c-0.8,0.7-2.1,0.7-2.8-0.2c0,0,0,0,0-0.1
	c-2.6-2.8-6.4-4.1-10.1-3.4c-0.9,0.2-1.8-0.3-2.1-1.2c0-0.1-0.1-0.3-0.1-0.4
	L22.1,1c0-1.2-0.7-1.4-1.4-0.5
	c-3.7,4.8-13,18.6-2.9,25.8c1,0.6,1.3,1.9,0.7,2.9c-5.9,9.4-31,56.3-8.7,65.4c5.1,2.1,8.8,2.8,12.7,2c3.8-0.8,7.2-2.8,9.7-5.8
	c2.7-2.2,5-4.8,6.8-7.8c1.5-2.6,3.1-6.4,4.9-10.5c0.3,0.1,2.9-6.8,4.2-8.8c1.9-3,7.8-9.7,15.3-8c2,0.5,5,0.6,5.7-2.3
	C69.6,50.9,
	71.7,48.7,
	66.3,47.6z"/>
</svg>
