<?xml version="1.0" encoding="utf-8"?>
<!-- Generator: Adobe Illustrator 19.2.0, SVG Export Plug-In . SVG Version: 6.00 Build 0)  -->
<svg version="1.1" id="Layer_1" xmlns="http://www.w3.org/2000/svg" xmlns:xlink="http://www.w3.org/1999/xlink" x="0px" y="0px"
	 viewBox="0 0 391.4 97" style="enable-background:new 0 0 391.4 97;" xml:space="preserve">
<style type="text/css">
	.st0{fill:#352040;}
</style>
<title>miss mittens logo</title>
<path class="st0" d="M253.3,47.6c-6.8-3.2-18,1.3-23.9,9.9c-1,1.5-1.9,3-2.8,4.6L218.4,73c-3.3-9.4-10-28.5-8.2-41.2
	c0.3-1.1,1.3-1.9,2.5-1.8c14.8,1.4,16.2-11.8,16.1-21.4c0-1.2-0.8-1.5-1.6-0.7l-2.9,2.6c-0.8,0.7-2.1,0.7-2.8-0.2c0,0,0,0,0-0.1
	c-2.6-2.8-6.4-4.1-10.1-3.4c-0.9,0.2-1.8-0.3-2.1-1.2c0-0.1-0.1-0.3-0.1-0.4L209.1,1c0-1.2-0.7-1.4-1.4-0.5
	c-3.7,4.8-13,18.6-2.9,25.8c1,0.6,1.3,1.9,0.7,2.9c-5.9,9.4-31,56.3-8.7,65.4c5.1,2.1,8.8,2.8,12.7,2c3.8-0.8,7.2-2.8,9.7-5.8
	c2.7-2.2,5-4.8,6.8-7.8c1.5-2.6,3.1-6.4,4.9-10.5c0.3,0.1,2.9-6.8,4.2-8.8c1.9-3,7.8-9.7,15.3-8c2,0.5,5,0.6,5.7-2.3
	C256.6,50.9,255.7,48.7,253.3,47.6z"/>
<path class="st0" d="M3.6,36.5c0.1-0.2,0.3-0.4,0.5-0.4h0.4c0.2,0,0.4,0.1,0.5,0.3l5.5,15.4h0.1l5.5-15.4c0.1-0.2,0.3-0.3,0.5-0.3
	h0.5c0.2,0,0.4,0.2,0.5,0.4l3.6,18.8c0.1,0.3,0,0.5-0.3,0.6c-0.1,0-0.1,0-0.2,0h-1.1c-0.2,0-0.4-0.2-0.5-0.4l-2.5-14.4h-0.1
	l-5.1,14.8c-0.1,0.2-0.3,0.3-0.5,0.3h-0.5c-0.2,0-0.4-0.1-0.5-0.3L4.7,41.2H4.6L2.1,55.6C2.1,55.8,1.9,56,1.6,56H0.6
	c-0.3,0-0.5-0.2-0.5-0.4c0-0.1,0-0.2,0-0.2L3.6,36.5z"/>
<path class="st0" d="M25.1,36.9c0-0.3,0.2-0.5,0.5-0.5h1.1c0.3,0,0.5,0.2,0.5,0.5v18.5c0,0.3-0.2,0.5-0.5,0.5h-1.1
	c-0.3,0-0.5-0.2-0.5-0.5C25.1,55.4,25.1,36.9,25.1,36.9z"/>
<path class="st0" d="M31.3,53l0.4-0.5c0.3-0.4,0.5-0.5,0.9-0.2c1.3,1.2,3,1.9,4.8,2c2.3,0,3.8-1.4,3.8-3.2c0-1.9-1.7-3-4.9-4.4
	s-4.9-2.5-4.9-5.7c0-1.9,1.5-5,6-5c1.7,0,3.4,0.5,4.8,1.4c0.3,0.2,0.4,0.6,0.3,0.9c0,0-0.1,0.1-0.1,0.1L42,38.9
	c-0.2,0.4-0.5,0.4-1,0.1c-1.1-0.7-2.4-1.1-3.7-1.1c-3,0-3.9,1.9-3.9,3.1c0,2,1.4,2.9,3.8,3.8c3.8,1.5,6.2,3,6.2,6.2
	c0,2.9-2.8,5.2-6,5.2c-2.2,0-4.3-0.8-6-2.3c-0.3-0.1-0.4-0.5-0.3-0.8C31.2,53.1,31.2,53.1,31.3,53z"/>
<path class="st0" d="M46,53l0.4-0.5c0.3-0.4,0.5-0.5,0.9-0.2c1.3,1.2,3,1.9,4.8,2c2.3,0,3.8-1.4,3.8-3.2c0-1.9-1.7-3-4.9-4.4
	S46,44.2,46,41c0-1.9,1.5-5,6-5c1.7,0,3.4,0.5,4.8,1.4c0.3,0.2,0.4,0.6,0.3,0.9c0,0-0.1,0.1-0.1,0.1l-0.3,0.5
	c-0.2,0.4-0.5,0.4-1,0.1C54.6,38.3,53.3,38,52,38c-3,0-3.9,1.9-3.9,3.1c0,2,1.4,2.9,3.8,3.8c3.8,1.5,6.2,3,6.2,6.2
	c0,2.9-2.8,5.2-6,5.2c-2.2,0-4.3-0.8-6-2.3c-0.3-0.1-0.5-0.5-0.3-0.8C45.8,53.1,45.9,53.1,46,53z"/>
<path class="st0" d="M71.1,36.5c0.1-0.2,0.3-0.4,0.5-0.4H72c0.2,0,0.4,0.1,0.5,0.3L78,51.8h0.1l5.5-15.4c0.1-0.2,0.3-0.3,0.5-0.3
	h0.4c0.2,0,0.4,0.2,0.5,0.4l3.6,18.8c0.1,0.3,0,0.5-0.3,0.6c-0.1,0-0.1,0-0.2,0h-1.1c-0.2,0-0.4-0.2-0.5-0.4l-2.5-14.4h-0.1
	l-5.2,14.8c-0.1,0.2-0.3,0.3-0.5,0.3h-0.5c-0.2,0-0.4-0.1-0.5-0.3l-5.2-14.8H72l-2.5,14.4c-0.1,0.2-0.3,0.4-0.5,0.4H68
	c-0.3,0-0.5-0.2-0.5-0.4c0-0.1,0-0.2,0-0.2L71.1,36.5z"/>
<path class="st0" d="M92.6,36.9c0-0.3,0.2-0.5,0.5-0.5h1.1c0.3,0,0.5,0.2,0.5,0.5v18.5c0,0.3-0.2,0.5-0.5,0.5h-1.2
	c-0.3,0-0.5-0.3-0.5-0.5V36.9z"/>
<path class="st0" d="M103.1,38.2h-4.9c-0.3,0-0.5-0.2-0.5-0.5v-0.8c0-0.3,0.2-0.5,0.5-0.5h11.9c0.3,0,0.5,0.2,0.5,0.5v0.8
	c0,0.3-0.2,0.5-0.5,0.5h-4.9v17.2c0,0.3-0.2,0.5-0.5,0.5h-1.1c-0.3,0-0.5-0.2-0.5-0.5L103.1,38.2L103.1,38.2z"/>
<path class="st0" d="M118,38.2h-4.9c-0.3,0-0.5-0.2-0.5-0.5v-0.8c0-0.3,0.2-0.5,0.5-0.5H125c0.3,0,0.5,0.2,0.5,0.5v0.8
	c0,0.3-0.2,0.5-0.5,0.5h-4.9v17.2c0,0.3-0.2,0.5-0.5,0.5h-1.1c-0.3,0-0.5-0.2-0.5-0.5L118,38.2L118,38.2z"/>
<path class="st0" d="M128.6,36.9c0-0.3,0.2-0.5,0.5-0.5h11c0.3,0,0.5,0.2,0.5,0.5v0.8c0,0.3-0.2,0.5-0.5,0.5h-9.4v6.8h8
	c0.3,0,0.5,0.2,0.5,0.5v0.8c0,0.3-0.2,0.5-0.5,0.5h-8v7.1h9.4c0.3,0,0.5,0.2,0.5,0.5v0.8c0,0.3-0.2,0.5-0.5,0.5h-11
	c-0.3,0-0.5-0.2-0.5-0.5V36.9z"/>
<path class="st0" d="M144,36.6c0-0.3,0.2-0.5,0.5-0.5h0.4c0.2,0,0.4,0.1,0.4,0.2l12.5,15.5h0.1V36.9c0-0.3,0.2-0.5,0.5-0.5h1
	c0.3,0,0.5,0.2,0.5,0.5v18.8c0,0.3-0.2,0.5-0.5,0.5h-0.2c-0.2,0-0.4-0.1-0.4-0.2l-12.7-15.8l0,0v15.2c0,0.3-0.2,0.5-0.5,0.5h-1
	c-0.3,0-0.5-0.2-0.5-0.5L144,36.6L144,36.6z"/>
<path class="st0" d="M164,53l0.4-0.5c0.3-0.4,0.5-0.5,0.9-0.2c1.3,1.2,3,1.9,4.8,2c2.3,0,3.8-1.4,3.8-3.2c0-1.9-1.7-3-4.9-4.4
	s-4.9-2.5-4.9-5.7c0-1.9,1.5-5,6-5c1.7,0,3.4,0.5,4.8,1.4c0.3,0.2,0.4,0.6,0.3,0.9c0,0-0.1,0.1-0.1,0.1l-0.3,0.5
	c-0.2,0.4-0.5,0.4-1,0.1c-1.1-0.7-2.4-1.1-3.7-1.1c-3,0-3.9,1.9-3.9,3.1c0,2,1.4,2.9,3.8,3.8c3.8,1.5,6.2,3,6.2,6.2
	c0,2.9-2.8,5.2-6,5.2c-2.2,0-4.3-0.8-6-2.3c-0.3-0.1-0.5-0.5-0.3-0.8C163.9,53.1,163.9,53.1,164,53z"/>
<path class="st0" d="M276.9,36.1c2.5,0,4.9,0.9,6.8,2.6c0.2,0.2,0.2,0.5,0,0.8c0,0,0,0,0,0l-0.8,0.8c-0.2,0.3-0.5,0.2-0.7,0
	c-1.5-1.3-3.4-2.1-5.4-2.1c-4.4,0-8,3.6-8,8s3.6,8.1,8,8.1c2,0,3.9-0.7,5.4-2.1c0.2-0.2,0.5-0.2,0.7-0.1c0,0,0,0,0.1,0.1l0.7,0.6
	c0.2,0.2,0.2,0.5,0,0.7c0,0,0,0,0,0c-1.8,1.7-4.2,2.7-6.7,2.7c-5.6,0-10.1-4.5-10.1-10.1S271.3,36.1,276.9,36.1z"/>
<path class="st0" d="M285.5,55.2l8.5-18.8c0.1-0.2,0.3-0.3,0.5-0.3h0.3c0.2,0,0.4,0.1,0.5,0.3l8.5,18.8c0.1,0.2,0.1,0.5-0.2,0.7
	c-0.1,0.1-0.2,0.1-0.3,0.1h-1.1c-0.2,0-0.4-0.1-0.5-0.3l-2.1-4.7h-9.9l-2,4.6c-0.1,0.2-0.3,0.3-0.5,0.3H286c-0.3,0-0.5-0.2-0.6-0.4
	C285.4,55.4,285.4,55.3,285.5,55.2z M298.8,49.3c-1.4-3-2.7-6.1-4.1-9.2h-0.2l-4.1,9.2H298.8z"/>
<path class="st0" d="M308.1,38.2h-4.9c-0.3,0-0.5-0.2-0.5-0.5v-0.8c0-0.3,0.2-0.5,0.5-0.5h11.9c0.3,0,0.5,0.2,0.5,0.5v0.8
	c0,0.3-0.2,0.5-0.5,0.5h-4.9v17.2c0,0.3-0.2,0.5-0.5,0.5h-1.1c-0.3,0-0.5-0.2-0.5-0.5L308.1,38.2L308.1,38.2z"/>
<path class="st0" d="M334.6,36.1c2.5,0,4.9,0.9,6.8,2.6c0.2,0.2,0.2,0.5,0,0.8c0,0,0,0,0,0l-0.8,0.8c-0.2,0.3-0.5,0.2-0.7,0
	c-1.5-1.3-3.4-2.1-5.4-2.1c-4.4,0-8,3.6-8,8.1c0,4.4,3.6,8,8,8c2,0,3.9-0.7,5.4-2.1c0.2-0.2,0.5-0.2,0.7-0.1c0,0,0,0,0.1,0.1
	l0.6,0.6c0.2,0.2,0.2,0.5,0,0.7c0,0,0,0,0,0c-1.8,1.7-4.2,2.7-6.7,2.7c-5.6,0.3-10.3-4-10.6-9.5c-0.3-5.6,4-10.3,9.5-10.6
	C333.9,36.1,334.3,36.1,334.6,36.1z"/>
<path class="st0" d="M343.2,55.2l8.5-18.8c0.1-0.2,0.3-0.3,0.5-0.3h0.3c0.2,0,0.4,0.1,0.5,0.3l8.5,18.8c0.1,0.2,0.1,0.5-0.2,0.7
	c-0.1,0.1-0.2,0.1-0.3,0.1h-1.1c-0.2,0-0.4-0.1-0.5-0.3l-2.1-4.7h-9.9l-2,4.6c-0.1,0.2-0.3,0.3-0.5,0.3h-1.1c-0.3,0-0.5-0.2-0.6-0.4
	C343.2,55.4,343.2,55.3,343.2,55.2z M356.6,49.3c-1.4-3-2.7-6.1-4.1-9.2h-0.2l-4.1,9.2H356.6z"/>
<path class="st0" d="M364.2,36.9c0-0.3,0.2-0.5,0.5-0.5h11c0.3,0,0.5,0.2,0.5,0.5v0.8c0,0.3-0.2,0.5-0.5,0.5h-9.4v7.7h8
	c0.3,0,0.5,0.2,0.5,0.5v0.8c0,0.3-0.2,0.5-0.5,0.5h-8v7.6c0,0.3-0.2,0.5-0.5,0.5h-1.1c-0.3,0-0.5-0.2-0.5-0.5L364.2,36.9L364.2,36.9
	z"/>
<path class="st0" d="M379.3,36.9c0-0.3,0.2-0.5,0.5-0.5h11c0.3,0,0.5,0.2,0.5,0.5v0.8c0,0.3-0.2,0.5-0.5,0.5h-9.4v6.8h8
	c0.3,0,0.5,0.2,0.5,0.5v0.8c0,0.3-0.2,0.5-0.5,0.5h-8v7.1h9.4c0.3,0,0.5,0.2,0.5,0.5v0.8c0,0.3-0.2,0.5-0.5,0.5h-11
	c-0.3,0-0.5-0.2-0.5-0.5L379.3,36.9L379.3,36.9z"/>
</svg>
